# xmcd
#
# Track frame offsets: 
#        150
#        34175
#        63330
#        101062
#        128587
#        155762
#
# Disc length: 2534 seconds
#
# Revision: 0
# Processed by: cddbd v1.5.2PL0 Copyright (c) Steve Scherf et al.
# Submitted via: ExactAudioCopy v1.0b1
#
DISCID=4b09e406
DTITLE=Eric Clapton  - A Wednesday Night at Tokyo Dome - Disc 1
DYEAR=1900
DGENRE=
TTITLE0=Crossroads
TTITLE1=White Room
TTITLE2=I Shot the Sheriff
TTITLE3=Money for Nothing
TTITLE4=I Don't Wanna Do Like That
TTITLE5=Wonderful Tonight
EXTD=
EXTT0=
EXTT1=
EXTT2=
EXTT3=
EXTT4=
EXTT5=
PLAYORDER=
